<svg width="50" height="50" viewBox="0 0 65 59" fill="none" xmlns="http://www.w3.org/2000/svg">
<path d="M0.363636 29.4545V26.6364C2.89394 26.6364 4.65909 26.1061 5.65909 25.0455C6.67424 23.9848 7.18182 22.2121 7.18182 19.7273V12.4545C7.18182 10.3636 7.37879 8.55303 7.77273 7.02272C8.18182 5.49242 8.84091 4.22727 9.75 3.22727C10.6591 2.22727 11.8712 1.48485 13.3864 1C14.9015 0.515149 16.7727 0.272724 19 0.272724V4.72727C17.2424 4.72727 15.8561 5 14.8409 5.54545C13.8409 6.09091 13.1288 6.93939 12.7045 8.09091C12.2955 9.22727 12.0909 10.6818 12.0909 12.4545V21.5455C12.0909 22.7273 11.9318 23.803 11.6136 24.7727C11.3106 25.7424 10.7424 26.5758 9.90909 27.2727C9.07576 27.9697 7.88636 28.5076 6.34091 28.8864C4.81061 29.2652 2.81818 29.4545 0.363636 29.4545ZM19 58.4545C16.7727 58.4545 14.9015 58.2121 13.3864 57.7273C11.8712 57.2424 10.6591 56.5 9.75 55.5C8.84091 54.5 8.18182 53.2348 7.77273 51.7045C7.37879 50.1742 7.18182 48.3636 7.18182 46.2727V39C7.18182 36.5152 6.67424 34.7424 5.65909 33.6818C4.65909 32.6212 2.89394 32.0909 0.363636 32.0909V29.2727C2.81818 29.2727 4.81061 29.4621 6.34091 29.8409C7.88636 30.2197 9.07576 30.7576 9.90909 31.4545C10.7424 32.1515 11.3106 32.9848 11.6136 33.9545C11.9318 34.9242 12.0909 36 12.0909 37.1818V46.2727C12.0909 48.0455 12.2955 49.5 12.7045 50.6364C13.1288 51.7727 13.8409 52.6136 14.8409 53.1591C15.8561 53.7197 17.2424 54 19 54V58.4545ZM0.363636 32.0909V26.6364H5.72727V32.0909H0.363636ZM42.5511 0.272724L27.5511 56H22.642L37.642 0.272724H42.5511ZM64.8182 29.2727V32.0909C62.2879 32.0909 60.5152 32.6212 59.5 33.6818C58.5 34.7424 58 36.5152 58 39V46.2727C58 48.3636 57.7955 50.1742 57.3864 51.7045C56.9924 53.2348 56.3409 54.5 55.4318 55.5C54.5227 56.5 53.3106 57.2424 51.7955 57.7273C50.2803 58.2121 48.4091 58.4545 46.1818 58.4545V54C47.9394 54 49.3182 53.7197 50.3182 53.1591C51.3333 52.6136 52.0455 51.7727 52.4545 50.6364C52.8788 49.5 53.0909 48.0455 53.0909 46.2727V37.1818C53.0909 36 53.2424 34.9242 53.5455 33.9545C53.8636 32.9848 54.4394 32.1515 55.2727 31.4545C56.1061 30.7576 57.2879 30.2197 58.8182 29.8409C60.3636 29.4621 62.3636 29.2727 64.8182 29.2727ZM46.1818 0.272724C48.4091 0.272724 50.2803 0.515149 51.7955 1C53.3106 1.48485 54.5227 2.22727 55.4318 3.22727C56.3409 4.22727 56.9924 5.49242 57.3864 7.02272C57.7955 8.55303 58 10.3636 58 12.4545V19.7273C58 22.2121 58.5 23.9848 59.5 25.0455C60.5152 26.1061 62.2879 26.6364 64.8182 26.6364V29.4545C62.3636 29.4545 60.3636 29.2652 58.8182 28.8864C57.2879 28.5076 56.1061 27.9697 55.2727 27.2727C54.4394 26.5758 53.8636 25.7424 53.5455 24.7727C53.2424 23.803 53.0909 22.7273 53.0909 21.5455V12.4545C53.0909 10.6818 52.8788 9.22727 52.4545 8.09091C52.0455 6.93939 51.3333 6.09091 50.3182 5.54545C49.3182 5 47.9394 4.72727 46.1818 4.72727V0.272724ZM64.8182 26.6364V32.0909H59.4545V26.6364H64.8182Z" fill="#0FCF7C"/>
</svg>
